# Blender 5.2.0 LTS
# www.blender.org
mtllib eyething bc mag.mtl
o RenderMesh_125980134342906.002
v 0.020954 0.200920 -0.081743 0.0553 0.0553 0.0553
v 0.003126 0.280614 -0.081743 0.0553 0.0553 0.0553
v 0.020954 0.200920 0.079878 0.0553 0.0553 0.0553
v 0.022951 0.112954 0.079878 0.0553 0.0553 0.0553
v 0.022951 0.112954 -0.081743 0.0553 0.0553 0.0553
v 0.008935 0.024625 0.079878 0.0553 0.0553 0.0553
v 0.008935 0.024625 -0.081743 0.0553 0.0553 0.0553
v -0.013086 -0.063885 0.079878 0.0553 0.0553 0.0553
v -0.013086 -0.063886 -0.081743 0.0553 0.0553 0.0553
v -0.051384 -0.136746 0.079878 0.0553 0.0553 0.0553
v -0.051384 -0.136746 -0.081743 0.0553 0.0553 0.0553
v 0.003126 0.280614 0.079878 0.0553 0.0553 0.0553
v 0.027143 0.281159 -0.081743 0.0553 0.0553 0.0553
v 0.044971 0.201465 -0.081743 0.0553 0.0553 0.0553
v 0.027143 0.281159 0.079878 0.0553 0.0553 0.0553
v 0.044971 0.201465 0.079878 0.0553 0.0553 0.0553
v 0.047150 0.105493 -0.081743 0.0553 0.0553 0.0553
v 0.047150 0.105493 0.079878 0.0553 0.0553 0.0553
v 0.041140 0.017346 -0.081743 0.0553 0.0553 0.0553
v 0.041140 0.017346 0.079878 0.0553 0.0553 0.0553
v 0.011113 -0.071347 -0.081743 0.0553 0.0553 0.0553
v 0.011113 -0.071347 0.079878 0.0553 0.0553 0.0553
v -0.027282 -0.144209 -0.081743 0.0553 0.0553 0.0553
v -0.027282 -0.144209 0.079878 0.0553 0.0553 0.0553
v -0.069189 0.294895 0.079878 0.0553 0.0553 0.0553
v -0.069189 0.294895 -0.081743 0.0553 0.0553 0.0553
v -0.051182 0.207292 -0.081743 0.0553 0.0553 0.0553
v -0.051182 0.207292 0.079878 0.0553 0.0553 0.0553
v -0.049185 0.119327 -0.081743 0.0553 0.0553 0.0553
v -0.049185 0.119327 0.079878 0.0553 0.0553 0.0553
v -0.055195 0.031179 -0.081743 0.0553 0.0553 0.0553
v -0.055195 0.031179 0.079878 0.0553 0.0553 0.0553
v -0.085222 -0.057513 -0.081743 0.0553 0.0553 0.0553
v -0.085222 -0.057513 0.079878 0.0553 0.0553 0.0553
v -0.123618 -0.130376 -0.081743 0.0553 0.0553 0.0553
v -0.123618 -0.130376 0.079878 0.0553 0.0553 0.0553
v -0.165342 0.300723 -0.081743 0.0553 0.0553 0.0553
v -0.147517 0.221126 -0.081743 0.0553 0.0553 0.0553
v -0.165342 0.300723 0.079878 0.0553 0.0553 0.0553
v -0.147517 0.221126 0.079878 0.0553 0.0553 0.0553
v -0.137612 0.133339 -0.081743 0.0553 0.0553 0.0553
v -0.137612 0.133339 0.079878 0.0553 0.0553 0.0553
v -0.151529 0.045013 -0.081743 0.0553 0.0553 0.0553
v -0.151529 0.045013 0.079878 0.0553 0.0553 0.0553
v -0.181556 -0.043679 -0.081743 0.0553 0.0553 0.0553
v -0.181556 -0.043679 0.079878 0.0553 0.0553 0.0553
v -0.219952 -0.116541 -0.081743 0.0553 0.0553 0.0553
v -0.219952 -0.116541 0.079878 0.0553 0.0553 0.0553
v -0.093207 0.294350 -0.081743 0.0553 0.0553 0.0553
v -0.093207 0.294350 0.079878 0.0553 0.0553 0.0553
v -0.189541 0.308183 -0.081743 0.0553 0.0553 0.0553
v -0.189541 0.308183 0.079878 0.0553 0.0553 0.0553
v -0.075380 0.214754 0.079878 0.0553 0.0553 0.0553
v -0.073384 0.126787 0.079878 0.0553 0.0553 0.0553
v -0.079212 0.030634 0.079878 0.0553 0.0553 0.0553
v -0.109421 -0.050052 0.079878 0.0553 0.0553 0.0553
v -0.147537 -0.130918 0.079878 0.0553 0.0553 0.0553
v -0.171716 0.228587 0.079878 0.0553 0.0553 0.0553
v -0.169537 0.132615 0.079878 0.0553 0.0553 0.0553
v -0.175547 0.044468 0.079878 0.0553 0.0553 0.0553
v -0.205755 -0.036218 0.079878 0.0553 0.0553 0.0553
v -0.243871 -0.117084 0.079878 0.0553 0.0553 0.0553
v -0.171716 0.228587 -0.081743 0.0553 0.0553 0.0553
v -0.169537 0.132615 -0.081743 0.0553 0.0553 0.0553
v -0.175547 0.044468 -0.081743 0.0553 0.0553 0.0553
v -0.205755 -0.036218 -0.081743 0.0553 0.0553 0.0553
v -0.243871 -0.117084 -0.081743 0.0553 0.0553 0.0553
v -0.075380 0.214754 -0.081743 0.0553 0.0553 0.0553
v -0.073384 0.126787 -0.081743 0.0553 0.0553 0.0553
v -0.079212 0.030634 -0.081743 0.0553 0.0553 0.0553
v -0.109421 -0.050052 -0.081743 0.0553 0.0553 0.0553
v -0.147537 -0.130918 -0.081743 0.0553 0.0553 0.0553
v 0.062382 0.289469 -0.076910 0.0000 0.0000 0.0000
v 0.062382 0.289469 0.074262 0.0000 0.0000 0.0000
v 0.080750 0.185953 -0.076910 0.0000 0.0000 0.0000
v 0.080750 0.185953 0.074262 0.0000 0.0000 0.0000
v 0.082749 0.097890 -0.076910 0.0000 0.0000 0.0000
v 0.082749 0.097890 0.074262 0.0000 0.0000 0.0000
v 0.068915 0.001556 -0.076910 0.0000 0.0000 0.0000
v 0.068915 0.001556 0.074262 0.0000 0.0000 0.0000
v 0.038985 -0.087134 -0.076910 0.0000 0.0000 0.0000
v 0.038985 -0.087134 0.074262 0.0000 0.0000 0.0000
v 0.000953 -0.176008 -0.076910 0.0000 0.0000 0.0000
v 0.000953 -0.176008 0.074262 0.0000 0.0000 0.0000
v 0.018052 -0.223582 0.089497 0.0000 0.0000 0.0000
v 0.018052 -0.223582 -0.091314 0.0000 0.0000 0.0000
v 0.011137 -0.271798 0.089497 0.0000 0.0000 0.0000
v 0.011137 -0.271798 -0.091314 0.0000 0.0000 0.0000
v -0.234447 0.322783 0.074262 0.0000 0.0000 0.0000
v -0.234447 0.322783 -0.076910 0.0000 0.0000 0.0000
v -0.341997 -0.223743 0.089497 0.0000 0.0000 0.0000
v -0.335178 -0.175626 0.089497 0.0000 0.0000 0.0000
v -0.216257 0.227175 0.074262 0.0000 0.0000 0.0000
v -0.206075 0.131386 0.074262 0.0000 0.0000 0.0000
v -0.220089 0.043056 0.074262 0.0000 0.0000 0.0000
v -0.250018 -0.045634 0.074262 0.0000 0.0000 0.0000
v -0.296057 -0.134690 0.074262 0.0000 0.0000 0.0000
v -0.341997 -0.223743 -0.091314 0.0000 0.0000 0.0000
v -0.335178 -0.175626 -0.091314 0.0000 0.0000 0.0000
v -0.216257 0.227175 -0.076910 0.0000 0.0000 0.0000
v -0.206075 0.131386 -0.076910 0.0000 0.0000 0.0000
v -0.220089 0.043056 -0.076910 0.0000 0.0000 0.0000
v -0.250018 -0.045634 -0.076910 0.0000 0.0000 0.0000
v -0.296057 -0.134690 -0.076910 0.0000 0.0000 0.0000
v -0.181476 -0.062009 0.080413 0.9063 0.9063 0.9063
v -0.136661 -0.073553 0.080413 0.9063 0.9063 0.9063
v -0.156289 -0.056382 0.080413 0.9063 0.9063 0.9063
v -0.134569 -0.103212 0.080413 0.9063 0.9063 0.9063
v -0.197716 -0.087216 0.080413 0.9063 0.9063 0.9063
v -0.150568 -0.128124 0.080413 0.9063 0.9063 0.9063
v -0.195357 -0.117132 0.080413 0.9063 0.9063 0.9063
v -0.175997 -0.134046 0.080413 0.9063 0.9063 0.9063
v -0.181476 -0.062009 0.080236 0.9063 0.9063 0.9063
v -0.156289 -0.056382 0.080236 0.9063 0.9063 0.9063
v -0.136661 -0.073553 0.080236 0.9063 0.9063 0.9063
v -0.134569 -0.103212 0.080236 0.9063 0.9063 0.9063
v -0.197716 -0.087216 0.080236 0.9063 0.9063 0.9063
v -0.150568 -0.128124 0.080236 0.9063 0.9063 0.9063
v -0.195357 -0.117132 0.080236 0.9063 0.9063 0.9063
v -0.175997 -0.134046 0.080236 0.9063 0.9063 0.9063
v -0.196811 -0.087374 0.080372 0.9063 0.0000 0.0304
v -0.190880 -0.102329 0.080372 0.9063 0.0000 0.0304
v -0.165998 -0.095344 0.084000 0.9063 0.0000 0.0304
v -0.170481 -0.112787 0.080372 0.9063 0.0000 0.0304
v -0.184633 -0.077435 0.080372 0.9063 0.0000 0.0304
v -0.147668 -0.112997 0.080372 0.9063 0.0000 0.0304
v -0.161803 -0.077643 0.080372 0.9063 0.0000 0.0304
v -0.135482 -0.103047 0.080372 0.9063 0.0000 0.0304
v -0.141117 -0.088360 0.080372 0.9063 0.0000 0.0304
v -0.032959 0.067981 0.080413 0.9063 0.9063 0.9063
v 0.009975 0.050708 0.080413 0.9063 0.9063 0.9063
v -0.007254 0.070286 0.080413 0.9063 0.9063 0.9063
v 0.008193 0.021029 0.080413 0.9063 0.9063 0.9063
v -0.052339 0.045100 0.080413 0.9063 0.9063 0.9063
v -0.010909 -0.001592 0.080413 0.9063 0.9063 0.9063
v -0.053889 0.015131 0.080413 0.9063 0.9063 0.9063
v -0.036891 -0.004157 0.080413 0.9063 0.9063 0.9063
v -0.032959 0.067981 0.080236 0.9063 0.9063 0.9063
v -0.007254 0.070286 0.080236 0.9063 0.9063 0.9063
v 0.009975 0.050708 0.080236 0.9063 0.9063 0.9063
v 0.008193 0.021029 0.080236 0.9063 0.9063 0.9063
v -0.052339 0.045100 0.080236 0.9063 0.9063 0.9063
v -0.010909 -0.001592 0.080236 0.9063 0.9063 0.9063
v -0.053889 0.015131 0.080236 0.9063 0.9063 0.9063
v -0.036891 -0.004157 0.080236 0.9063 0.9063 0.9063
v -0.051462 0.044825 0.080372 0.9063 0.0000 0.0304
v -0.047525 0.029226 0.080372 0.9063 0.0000 0.0304
v -0.021946 0.032916 0.084000 0.9063 0.0000 0.0304
v -0.028659 0.016205 0.080372 0.9063 0.0000 0.0304
v -0.038094 0.053097 0.080372 0.9063 0.0000 0.0304
v -0.006067 0.013030 0.080372 0.9063 0.0000 0.0304
v -0.015485 0.049922 0.080372 0.9063 0.0000 0.0304
v 0.007310 0.021312 0.080372 0.9063 0.0000 0.0304
v 0.003632 0.036607 0.080372 0.9063 0.0000 0.0304
v -0.033523 0.176150 0.080413 0.9063 0.9063 0.9063
v 0.012623 0.172653 0.080413 0.9063 0.9063 0.9063
v -0.009715 0.186112 0.080413 0.9063 0.9063 0.9063
v 0.019889 0.143823 0.080413 0.9063 0.9063 0.9063
v -0.045085 0.148483 0.080413 0.9063 0.9063 0.9063
v 0.008513 0.116488 0.080413 0.9063 0.9063 0.9063
v -0.037511 0.119446 0.080413 0.9063 0.9063 0.9063
v -0.015481 0.106194 0.080413 0.9063 0.9063 0.9063
v -0.033523 0.176150 0.080236 0.9063 0.9063 0.9063
v -0.009715 0.186112 0.080236 0.9063 0.9063 0.9063
v 0.012623 0.172653 0.080236 0.9063 0.9063 0.9063
v 0.019889 0.143823 0.080236 0.9063 0.9063 0.9063
v -0.045085 0.148483 0.080236 0.9063 0.9063 0.9063
v 0.008513 0.116488 0.080236 0.9063 0.9063 0.9063
v -0.037511 0.119446 0.080236 0.9063 0.9063 0.9063
v -0.015481 0.106194 0.080236 0.9063 0.9063 0.9063
v -0.044166 0.148486 0.080372 0.9063 0.0000 0.0304
v -0.035701 0.134805 0.080372 0.9063 0.0000 0.0304
v -0.012433 0.146050 0.084000 0.9063 0.0000 0.0304
v -0.013783 0.128092 0.080372 0.9063 0.0000 0.0304
v -0.033922 0.160410 0.080372 0.9063 0.0000 0.0304
v 0.008712 0.131890 0.080372 0.9063 0.0000 0.0304
v -0.011410 0.164213 0.080372 0.9063 0.0000 0.0304
v 0.018962 0.143825 0.080372 0.9063 0.0000 0.0304
v 0.010836 0.157294 0.080372 0.9063 0.0000 0.0304
v -0.181476 -0.062009 -0.077415 0.9063 0.9063 0.9063
v -0.136661 -0.073553 -0.077415 0.9063 0.9063 0.9063
v -0.156289 -0.056382 -0.077415 0.9063 0.9063 0.9063
v -0.134569 -0.103212 -0.077415 0.9063 0.9063 0.9063
v -0.197716 -0.087216 -0.077415 0.9063 0.9063 0.9063
v -0.150568 -0.128124 -0.077415 0.9063 0.9063 0.9063
v -0.195357 -0.117132 -0.077415 0.9063 0.9063 0.9063
v -0.175997 -0.134046 -0.077415 0.9063 0.9063 0.9063
v -0.181476 -0.062009 -0.077238 0.9063 0.9063 0.9063
v -0.156289 -0.056382 -0.077238 0.9063 0.9063 0.9063
v -0.136661 -0.073553 -0.077238 0.9063 0.9063 0.9063
v -0.134569 -0.103212 -0.077238 0.9063 0.9063 0.9063
v -0.197716 -0.087216 -0.077238 0.9063 0.9063 0.9063
v -0.150568 -0.128124 -0.077238 0.9063 0.9063 0.9063
v -0.195357 -0.117132 -0.077238 0.9063 0.9063 0.9063
v -0.175997 -0.134046 -0.077238 0.9063 0.9063 0.9063
v -0.196811 -0.087374 -0.077374 0.9063 0.0000 0.0304
v -0.190880 -0.102329 -0.077374 0.9063 0.0000 0.0304
v -0.165998 -0.095344 -0.081002 0.9063 0.0000 0.0304
v -0.170481 -0.112787 -0.077374 0.9063 0.0000 0.0304
v -0.184633 -0.077435 -0.077374 0.9063 0.0000 0.0304
v -0.147668 -0.112997 -0.077374 0.9063 0.0000 0.0304
v -0.161803 -0.077643 -0.077374 0.9063 0.0000 0.0304
v -0.135482 -0.103047 -0.077374 0.9063 0.0000 0.0304
v -0.141117 -0.088360 -0.077374 0.9063 0.0000 0.0304
v -0.032959 0.067981 -0.077415 0.9063 0.9063 0.9063
v 0.009975 0.050708 -0.077415 0.9063 0.9063 0.9063
v -0.007254 0.070286 -0.077415 0.9063 0.9063 0.9063
v 0.008193 0.021029 -0.077415 0.9063 0.9063 0.9063
v -0.052339 0.045100 -0.077415 0.9063 0.9063 0.9063
v -0.010909 -0.001592 -0.077415 0.9063 0.9063 0.9063
v -0.053889 0.015131 -0.077415 0.9063 0.9063 0.9063
v -0.036891 -0.004157 -0.077415 0.9063 0.9063 0.9063
v -0.032959 0.067981 -0.077238 0.9063 0.9063 0.9063
v -0.007254 0.070286 -0.077238 0.9063 0.9063 0.9063
v 0.009975 0.050708 -0.077238 0.9063 0.9063 0.9063
v 0.008193 0.021029 -0.077238 0.9063 0.9063 0.9063
v -0.052339 0.045100 -0.077238 0.9063 0.9063 0.9063
v -0.010909 -0.001592 -0.077238 0.9063 0.9063 0.9063
v -0.053889 0.015131 -0.077238 0.9063 0.9063 0.9063
v -0.036891 -0.004157 -0.077238 0.9063 0.9063 0.9063
v -0.051462 0.044825 -0.077374 0.9063 0.0000 0.0304
v -0.047525 0.029226 -0.077374 0.9063 0.0000 0.0304
v -0.021946 0.032916 -0.081002 0.9063 0.0000 0.0304
v -0.028659 0.016205 -0.077374 0.9063 0.0000 0.0304
v -0.038094 0.053097 -0.077374 0.9063 0.0000 0.0304
v -0.006067 0.013030 -0.077374 0.9063 0.0000 0.0304
v -0.015485 0.049922 -0.077374 0.9063 0.0000 0.0304
v 0.007310 0.021312 -0.077374 0.9063 0.0000 0.0304
v 0.003632 0.036607 -0.077374 0.9063 0.0000 0.0304
v -0.033523 0.176150 -0.077415 0.9063 0.9063 0.9063
v 0.012623 0.172653 -0.077415 0.9063 0.9063 0.9063
v -0.009715 0.186112 -0.077415 0.9063 0.9063 0.9063
v 0.019889 0.143823 -0.077415 0.9063 0.9063 0.9063
v -0.045085 0.148483 -0.077415 0.9063 0.9063 0.9063
v 0.008513 0.116488 -0.077415 0.9063 0.9063 0.9063
v -0.037511 0.119446 -0.077415 0.9063 0.9063 0.9063
v -0.015481 0.106194 -0.077415 0.9063 0.9063 0.9063
v -0.033523 0.176150 -0.077238 0.9063 0.9063 0.9063
v -0.009715 0.186112 -0.077238 0.9063 0.9063 0.9063
v 0.012623 0.172653 -0.077238 0.9063 0.9063 0.9063
v 0.019889 0.143823 -0.077238 0.9063 0.9063 0.9063
v -0.045085 0.148483 -0.077238 0.9063 0.9063 0.9063
v 0.008513 0.116488 -0.077238 0.9063 0.9063 0.9063
v -0.037511 0.119446 -0.077238 0.9063 0.9063 0.9063
v -0.015481 0.106194 -0.077238 0.9063 0.9063 0.9063
v -0.044166 0.148486 -0.077374 0.9063 0.0000 0.0304
v -0.035701 0.134805 -0.077374 0.9063 0.0000 0.0304
v -0.012433 0.146050 -0.081002 0.9063 0.0000 0.0304
v -0.013783 0.128092 -0.077374 0.9063 0.0000 0.0304
v -0.033922 0.160410 -0.077374 0.9063 0.0000 0.0304
v 0.008712 0.131890 -0.077374 0.9063 0.0000 0.0304
v -0.011410 0.164213 -0.077374 0.9063 0.0000 0.0304
v 0.018962 0.143825 -0.077374 0.9063 0.0000 0.0304
v 0.010836 0.157294 -0.077374 0.9063 0.0000 0.0304
vn -0.9922 -0.1250 -0.0000
vn -0.9822 -0.1880 -0.0000
vn -0.9995 0.0324 -0.0000
vn -0.9733 0.2297 -0.0000
vn -0.9732 0.2298 -0.0000
vn -0.9243 0.3816 -0.0000
vn -0.8998 0.4364 -0.0000
vn 0.9822 0.1881 -0.0000
vn 0.9921 0.1251 -0.0000
vn 0.9995 -0.0323 -0.0000
vn 0.9733 -0.2297 -0.0000
vn 0.9732 -0.2298 -0.0000
vn 0.9243 -0.3816 -0.0000
vn 0.8998 -0.4364 -0.0000
vn 0.9822 0.1880 -0.0000
vn 0.9821 0.1881 -0.0000
vn 0.9921 0.1252 -0.0000
vn 0.9995 -0.0324 -0.0000
vn 0.1273 0.9919 -0.0000
vn 0.1273 0.9919 0.0001
vn 0.1283 0.9917 -0.0000
vn -0.0000 -0.0000 1.0000
vn -0.9921 -0.1251 -0.0000
vn -0.9995 0.0323 -0.0000
vn -0.8998 0.4363 -0.0000
vn -0.1264 -0.9920 -0.0000
vn -0.1269 -0.9919 -0.0000
vn -0.1274 -0.9919 -0.0000
vn -0.1262 -0.9920 -0.0000
vn -0.0000 -0.0000 -1.0000
vn 0.9852 0.1715 -0.0000
vn 0.9931 0.1174 -0.0000
vn 0.9995 -0.0325 -0.0000
vn 0.9732 -0.2301 -0.0000
vn 0.9282 -0.3720 -0.0000
vn 1.0000 -0.0009 -0.0000
vn 0.9298 0.3680 -0.0000
vn 0.9908 -0.1356 -0.0000
vn 0.1278 0.9918 -0.0000
vn 0.0269 0.2057 0.9782
vn 0.0202 0.1496 0.9885
vn 0.0396 0.3309 0.9428
vn 0.0397 0.3309 0.9428
vn -0.1279 -0.9918 -0.0000
vn 0.0269 0.2058 -0.9782
vn 0.0202 0.1496 -0.9885
vn 0.0397 0.3309 -0.9428
vn -0.6793 0.7339 -0.0000
vn -0.7851 0.6193 -0.0000
vn -0.7851 0.6194 -0.0000
vn -0.9852 -0.1715 -0.0000
vn -0.9931 -0.1174 -0.0000
vn -0.9282 0.3720 -0.0000
vn -0.9908 0.1356 -0.0000
vn -0.9908 0.1355 -0.0000
vn -0.7437 0.1874 0.6417
vn -0.6930 -0.3483 0.6312
vn -0.1908 -0.7628 0.6178
vn 0.4470 -0.6336 0.6314
vn 0.7424 -0.1897 0.6426
vn 0.6950 0.3454 0.6306
vn 0.1941 0.7618 0.6181
vn -0.4440 0.6364 0.6308
vn -0.7437 0.1874 -0.6417
vn -0.4440 0.6364 -0.6308
vn 0.1941 0.7618 -0.6181
vn 0.6950 0.3454 -0.6306
vn 0.7424 -0.1897 -0.6426
vn 0.4470 -0.6336 -0.6314
vn -0.1901 -0.7630 -0.6178
vn -0.6930 -0.3483 -0.6312
vn -0.1006 0.0659 0.9927
vn -0.1285 -0.0712 0.9892
vn -0.0002 0.0004 1.0000
vn -0.0279 -0.2004 0.9793
vn -0.0780 0.1224 0.9894
vn 0.0776 -0.1211 0.9896
vn 0.0279 0.2010 0.9792
vn 0.1005 -0.0653 0.9928
vn 0.1286 0.0719 0.9891
vn -0.0004 -0.0005 -1.0000
vn -0.7130 0.2825 0.6417
vn -0.7324 -0.2552 0.6312
vn -0.2884 -0.7315 0.6178
vn 0.3608 -0.6864 0.6314
vn 0.7114 -0.2846 0.6426
vn 0.7340 0.2521 0.6306
vn 0.2915 0.7301 0.6181
vn -0.3575 0.6887 0.6308
vn -0.7130 0.2825 -0.6417
vn -0.3575 0.6887 -0.6308
vn 0.2915 0.7301 -0.6181
vn 0.7340 0.2521 -0.6306
vn 0.7114 -0.2846 -0.6426
vn 0.3608 -0.6864 -0.6314
vn -0.2877 -0.7318 -0.6178
vn -0.7324 -0.2552 -0.6312
vn -0.0911 0.0784 0.9927
vn -0.1366 -0.0539 0.9892
vn -0.0537 -0.1951 0.9793
vn -0.0614 0.1315 0.9894
vn 0.0612 -0.1302 0.9896
vn 0.0538 0.1956 0.9792
vn 0.0911 -0.0778 0.9928
vn 0.1368 0.0545 0.9891
vn -0.0005 -0.0004 -1.0000
vn -0.7651 0.0539 0.6417
vn -0.6211 -0.4646 0.6312
vn -0.0539 -0.7845 0.6178
vn 0.5513 -0.5453 0.6314
vn 0.7641 -0.0565 0.6426
vn 0.6236 0.4621 0.6306
vn 0.0573 0.7840 0.6181
vn -0.5488 0.5485 0.6308
vn -0.7651 0.0539 -0.6417
vn -0.5488 0.5485 -0.6308
vn 0.0573 0.7840 -0.6181
vn 0.6236 0.4621 -0.6306
vn 0.7641 -0.0565 -0.6426
vn 0.5513 -0.5453 -0.6314
vn -0.0532 -0.7845 -0.6178
vn -0.6211 -0.4646 -0.6312
vn -0.1106 0.0472 0.9927
vn -0.1140 -0.0927 0.9892
vn -0.0003 0.0004 1.0000
vn 0.0077 -0.2022 0.9793
vn -0.0982 0.1068 0.9894
vn 0.0977 -0.1056 0.9896
vn -0.0078 0.2028 0.9792
vn 0.1104 -0.0467 0.9928
vn 0.1140 0.0933 0.9891
vn -0.0003 -0.0006 -1.0000
vn -0.1908 -0.7628 -0.6179
vn -0.1900 -0.7630 0.6179
vn -0.1006 0.0659 -0.9927
vn -0.0002 0.0004 -1.0000
vn -0.1285 -0.0712 -0.9892
vn -0.0279 -0.2004 -0.9793
vn -0.0780 0.1224 -0.9894
vn 0.0776 -0.1211 -0.9896
vn 0.0279 0.2010 -0.9792
vn 0.1005 -0.0653 -0.9928
vn 0.1286 0.0719 -0.9891
vn -0.0005 -0.0006 1.0000
vn -0.3574 0.6887 -0.6308
vn -0.2884 -0.7315 -0.6179
vn -0.2876 -0.7318 0.6179
vn -0.3574 0.6887 0.6308
vn -0.0911 0.0784 -0.9927
vn -0.1366 -0.0539 -0.9892
vn -0.0537 -0.1951 -0.9793
vn -0.0614 0.1315 -0.9894
vn 0.0612 -0.1302 -0.9896
vn 0.0538 0.1956 -0.9792
vn 0.0911 -0.0778 -0.9928
vn 0.1368 0.0545 -0.9891
vn -0.0006 -0.0005 1.0000
vn -0.0539 -0.7845 -0.6178
vn -0.0531 -0.7845 0.6179
vn -0.1106 0.0472 -0.9927
vn -0.0003 0.0004 -1.0000
vn -0.1140 -0.0927 -0.9892
vn 0.0077 -0.2022 -0.9793
vn -0.0982 0.1068 -0.9894
vn 0.0977 -0.1056 -0.9896
vn -0.0078 0.2028 -0.9792
vn 0.1104 -0.0467 -0.9928
vn 0.1140 0.0933 -0.9891
vn -0.0004 -0.0007 1.0000
vt 0.394197 0.702441
vt 0.437758 0.700503
vt 0.391713 0.722989
vt 0.438945 0.676539
vt 0.395383 0.678478
vt 0.438726 0.651315
vt 0.395165 0.653253
vt 0.437806 0.625460
vt 0.394245 0.627398
vt 0.435274 0.602713
vt 0.391713 0.604652
vt 0.435274 0.721051
vt 0.695380 0.000737
vt 0.727029 -0.000000
vt 0.701088 0.022642
vt 0.732738 0.021904
vt 0.704033 0.049631
vt 0.735683 0.048894
vt 0.705107 0.074674
vt 0.736756 0.073937
vt 0.701302 0.100632
vt 0.732951 0.099895
vt 0.695380 0.122392
vt 0.727029 0.121654
vt 0.746428 0.317819
vt 0.720731 0.342685
vt 0.714779 0.318557
vt 0.752380 0.341947
vt 0.723431 0.367423
vt 0.755080 0.366685
vt 0.724504 0.392466
vt 0.756154 0.391728
vt 0.720700 0.418424
vt 0.752350 0.417686
vt 0.714779 0.440184
vt 0.746428 0.439446
vt 0.721962 0.493917
vt 0.753610 0.493113
vt 0.727713 0.515782
vt 0.759360 0.514979
vt 0.732069 0.540210
vt 0.763717 0.539406
vt 0.731589 0.565555
vt 0.763237 0.564751
vt 0.727839 0.591520
vt 0.759486 0.590717
vt 0.721962 0.613292
vt 0.753610 0.612489
vt 0.150637 0.910126
vt 0.150637 0.864266
vt 0.157440 0.910125
vt 0.157440 0.864264
vt 0.904410 0.861321
vt 0.904410 0.815460
vt 0.911213 0.861319
vt 0.911213 0.815459
vt 0.249032 0.902189
vt 0.249032 0.856329
vt 0.255978 0.902195
vt 0.255978 0.856335
vt 0.790500 0.022779
vt 0.791640 0.000000
vt 0.798380 0.001017
vt 0.783421 0.024008
vt 0.786776 0.047465
vt 0.779696 0.048694
vt 0.784958 0.074737
vt 0.778218 0.073720
vt 0.783480 0.099762
vt 0.790560 0.098533
vt 0.791667 0.121651
vt 0.798380 0.122664
vt 0.788813 0.187932
vt 0.790020 0.165130
vt 0.796758 0.166166
vt 0.782075 0.186896
vt 0.785019 0.212608
vt 0.777936 0.213818
vt 0.785716 0.237974
vt 0.776387 0.238839
vt 0.781576 0.264896
vt 0.788659 0.263686
vt 0.789702 0.286807
vt 0.796758 0.285593
vt 0.780383 0.662928
vt 0.781183 0.642396
vt 0.788262 0.641167
vt 0.773303 0.664157
vt 0.776318 0.689861
vt 0.767359 0.688509
vt 0.774840 0.714886
vt 0.768100 0.713869
vt 0.773362 0.739911
vt 0.780441 0.738682
vt 0.781549 0.761800
vt 0.788262 0.762812
vt 0.346419 0.704658
vt 0.389979 0.702682
vt 0.343955 0.725182
vt 0.391250 0.676536
vt 0.347690 0.678513
vt 0.391713 0.651942
vt 0.348153 0.653919
vt 0.389961 0.627639
vt 0.346401 0.629615
vt 0.387514 0.602714
vt 0.343955 0.604690
vt 0.387514 0.723205
vt 0.231217 0.687492
vt 0.274777 0.685515
vt 0.228752 0.708016
vt 0.275942 0.661550
vt 0.232382 0.663527
vt 0.276510 0.634775
vt 0.232950 0.636752
vt 0.274758 0.610472
vt 0.231198 0.612449
vt 0.272312 0.585547
vt 0.228752 0.587524
vt 0.272312 0.706039
vt 0.904485 0.284228
vt 0.904485 0.238367
vt 0.911269 0.284228
vt 0.911269 0.238367
vt 0.612632 0.904869
vt 0.612632 0.859008
vt 0.619501 0.904868
vt 0.619501 0.859007
vt 0.637256 0.912000
vt 0.637256 0.866140
vt 0.644040 0.912000
vt 0.644040 0.866140
vt 0.824211 0.287786
vt 0.823384 0.265004
vt 0.829104 0.286782
vt 0.818245 0.263761
vt 0.820680 0.240309
vt 0.815540 0.239066
vt 0.819361 0.213032
vt 0.814467 0.214037
vt 0.818288 0.188003
vt 0.823427 0.189246
vt 0.824231 0.166130
vt 0.829104 0.165130
vt 0.823452 0.121684
vt 0.822575 0.098876
vt 0.828343 0.120670
vt 0.817684 0.099890
vt 0.819821 0.074187
vt 0.814679 0.072954
vt 0.820327 0.048822
vt 0.813555 0.047927
vt 0.817322 0.021885
vt 0.822464 0.023118
vt 0.823221 0.000000
vt 0.828343 0.001237
vt 0.808416 0.120409
vt 0.807835 0.099874
vt 0.813555 0.121652
vt 0.802696 0.098631
vt 0.804885 0.072932
vt 0.798380 0.074267
vt 0.803812 0.047903
vt 0.798918 0.048907
vt 0.802738 0.022873
vt 0.807878 0.024117
vt 0.808682 0.001000
vt 0.813555 0.000000
vt 0.685507 0.145289
vt 0.715108 0.144515
vt 0.692028 0.173874
vt 0.721629 0.173100
vt 0.694801 0.198632
vt 0.724402 0.197858
vt 0.694573 0.226232
vt 0.724174 0.225458
vt 0.690863 0.252196
vt 0.720464 0.251422
vt 0.685507 0.278475
vt 0.715108 0.277700
vt 0.722851 0.290480
vt 0.687446 0.291406
vt 0.051633 0.872349
vt 0.051633 0.836933
vt 0.065439 0.837406
vt 0.065439 0.872823
vt 0.724463 0.725716
vt 0.767359 0.641167
vt 0.767359 0.725706
vt 0.724463 0.641177
vt 0.842163 0.101127
vt 0.828374 0.000077
vt 0.842163 0.000000
vt 0.828343 0.101227
vt 0.361967 0.317819
vt 0.435958 0.350820
vt 0.351036 0.345574
vt 0.446396 0.325254
vt 0.427738 0.376887
vt 0.345526 0.369953
vt 0.343955 0.397522
vt 0.426667 0.402241
vt 0.347290 0.423871
vt 0.430002 0.428590
vt 0.352868 0.450727
vt 0.437797 0.455947
vt 0.345457 0.462952
vt 0.446396 0.469489
vt 0.724463 0.641169
vt 0.673157 0.741558
vt 0.673157 0.641167
vt 0.724463 0.741560
vt 0.327611 0.833772
vt 0.341432 0.760307
vt 0.341432 0.833740
vt 0.327643 0.760355
vt 0.353380 0.602713
vt 0.408551 0.575033
vt 0.414893 0.601275
vt 0.346784 0.574253
vt 0.403839 0.548449
vt 0.343955 0.549544
vt 0.344130 0.521932
vt 0.404271 0.523082
vt 0.347802 0.495884
vt 0.407943 0.497034
vt 0.353123 0.469489
vt 0.414893 0.470296
vt 0.842254 0.165130
vt 0.829104 0.229058
vt 0.829384 0.167442
vt 0.842254 0.238367
vt 0.837117 0.458255
vt 0.837117 0.409473
vt 0.851292 0.411240
vt 0.851292 0.452025
vt -0.000000 0.712130
vt 0.043478 0.685489
vt 0.040747 0.710369
vt 0.002730 0.687250
vt 0.045506 0.659977
vt 0.004759 0.661739
vt 0.045320 0.634752
vt 0.004573 0.636514
vt 0.043739 0.608273
vt 0.002992 0.610034
vt 0.040747 0.580522
vt -0.000000 0.582284
vt 0.840906 0.728813
vt 0.854576 0.680592
vt 0.854576 0.729374
vt 0.840906 0.680031
vt 0.182890 0.474615
vt 0.240617 0.469953
vt 0.321498 0.468750
vt 0.379371 0.471731
vt 0.379371 0.477042
vt 0.322803 0.481684
vt 0.240763 0.482908
vt 0.183031 0.479993
vt 0.000000 0.501268
vt 0.049417 0.499461
vt 0.082698 0.502348
vt 0.117095 0.499399
vt 0.000009 0.503661
vt 0.164115 0.501054
vt 0.047059 0.505317
vt 0.164115 0.503448
vt 0.115970 0.505237
vt 0.597556 0.499771
vt 0.568294 0.502270
vt 0.528543 0.501625
vt 0.500306 0.498334
vt 0.500580 0.494191
vt 0.529559 0.491763
vt 0.569345 0.492409
vt 0.597556 0.495697
s 1
usemtl Material.009
f 1/1/1 3/2/1 2/3/2
f 1/1/1 4/4/3 3/2/1
f 5/5/3 4/4/3 1/1/1
f 5/5/3 6/6/4 4/4/3
f 7/7/5 6/6/4 5/5/3
f 7/7/5 8/8/6 6/6/4
f 9/9/6 8/8/6 7/7/5
f 9/9/6 10/10/7 8/8/6
f 11/11/7 10/10/7 9/9/6
f 2/3/2 3/2/1 12/12/2
f 13/13/8 15/14/8 14/15/9
f 14/15/9 15/14/8 16/16/9
f 14/15/9 16/16/9 17/17/10
f 17/17/10 16/16/9 18/18/10
f 18/18/10 19/19/11 17/17/10
f 19/19/11 18/18/10 20/20/12
f 19/19/11 20/20/12 21/21/13
f 21/21/13 20/20/12 22/22/13
f 21/21/13 22/22/13 23/23/14
f 23/23/14 22/22/13 24/24/14
f 25/25/15 27/26/9 26/27/8
f 27/26/9 25/25/15 28/28/9
f 27/26/9 28/28/9 29/29/10
f 29/29/10 28/28/9 30/30/10
f 29/29/10 30/30/10 31/31/12
f 31/31/12 30/30/10 32/32/12
f 31/31/12 32/32/12 33/33/13
f 33/33/13 32/32/12 34/34/13
f 33/33/13 34/34/13 35/35/14
f 35/35/14 34/34/13 36/36/14
f 37/37/16 39/38/15 38/39/17
f 38/39/17 39/38/15 40/40/17
f 38/39/17 40/40/17 41/41/18
f 41/41/18 40/40/17 42/42/18
f 41/41/18 42/42/18 43/43/12
f 43/43/12 42/42/18 44/44/12
f 43/43/12 44/44/12 45/45/13
f 45/45/13 44/44/12 46/46/13
f 45/45/13 46/46/13 47/47/14
f 47/47/14 46/46/13 48/48/14
f 49/49/19 50/50/19 26/51/20
f 26/51/20 50/50/19 25/52/19
f 2/53/19 12/54/19 13/55/20
f 13/55/20 12/54/19 15/56/19
f 51/57/21 52/58/21 37/59/21
f 37/59/21 52/58/21 39/60/21
f 53/61/22 25/62/22 50/63/22
f 25/62/22 53/61/22 28/64/22
f 54/65/22 28/64/22 53/61/22
f 28/64/22 54/65/22 30/66/22
f 55/67/22 30/66/22 54/65/22
f 30/66/22 55/67/22 32/68/22
f 34/69/22 32/68/22 55/67/22
f 55/67/22 56/70/22 34/69/22
f 36/71/22 34/69/22 56/70/22
f 56/70/22 57/72/22 36/71/22
f 3/73/22 15/74/22 12/75/22
f 15/74/22 3/73/22 16/76/22
f 4/77/22 16/76/22 3/73/22
f 16/76/22 4/77/22 18/78/22
f 6/79/22 18/78/22 4/77/22
f 18/78/22 6/79/22 20/80/22
f 22/81/22 20/80/22 6/79/22
f 6/79/22 8/82/22 22/81/22
f 24/83/22 22/81/22 8/82/22
f 8/82/22 10/84/22 24/83/22
f 58/85/22 39/86/22 52/87/22
f 39/86/22 58/85/22 40/88/22
f 59/89/22 40/88/22 58/85/22
f 40/88/22 59/89/22 42/90/22
f 60/91/22 42/90/22 59/89/22
f 42/90/22 60/91/22 44/92/22
f 46/93/22 44/92/22 60/91/22
f 60/91/22 61/94/22 46/93/22
f 48/95/22 46/93/22 61/94/22
f 61/94/22 62/96/22 48/95/22
f 63/97/1 58/98/23 51/99/2
f 63/97/1 59/100/24 58/98/23
f 64/101/24 59/100/24 63/97/1
f 64/101/24 60/102/5 59/100/24
f 65/103/5 60/102/5 64/101/24
f 65/103/5 61/104/6 60/102/5
f 66/105/6 61/104/6 65/103/5
f 66/105/6 62/106/7 61/104/6
f 67/107/25 62/106/7 66/105/6
f 51/99/2 58/98/23 52/108/2
f 68/109/1 53/110/1 49/111/2
f 68/109/1 54/112/3 53/110/1
f 69/113/3 54/112/3 68/109/1
f 69/113/3 55/114/5 54/112/3
f 70/115/4 55/114/5 69/113/3
f 70/115/4 56/116/6 55/114/5
f 71/117/6 56/116/6 70/115/4
f 71/117/6 57/118/25 56/116/6
f 72/119/25 57/118/25 71/117/6
f 49/111/2 53/110/1 50/120/2
f 35/121/26 36/122/26 72/123/26
f 72/123/26 36/122/26 57/124/26
f 23/125/27 24/126/27 11/127/28
f 11/127/28 24/126/27 10/128/27
f 47/129/29 48/130/29 67/131/29
f 67/131/29 48/130/29 62/132/29
f 26/133/30 68/134/30 49/135/30
f 68/134/30 26/133/30 27/136/30
f 27/136/30 69/137/30 68/134/30
f 69/137/30 27/136/30 29/138/30
f 29/138/30 70/139/30 69/137/30
f 70/139/30 29/138/30 31/140/30
f 33/141/30 70/139/30 31/140/30
f 70/139/30 33/141/30 71/142/30
f 35/143/30 71/142/30 33/141/30
f 71/142/30 35/143/30 72/144/30
f 13/145/30 1/146/30 2/147/30
f 1/146/30 13/145/30 14/148/30
f 14/148/30 5/149/30 1/146/30
f 5/149/30 14/148/30 17/150/30
f 17/150/30 7/151/30 5/149/30
f 7/151/30 17/150/30 19/152/30
f 21/153/30 7/151/30 19/152/30
f 7/151/30 21/153/30 9/154/30
f 23/155/30 9/154/30 21/153/30
f 9/154/30 23/155/30 11/156/30
f 37/157/30 63/158/30 51/159/30
f 63/158/30 37/157/30 38/160/30
f 38/160/30 64/161/30 63/158/30
f 64/161/30 38/160/30 41/162/30
f 41/162/30 65/163/30 64/161/30
f 65/163/30 41/162/30 43/164/30
f 45/165/30 65/163/30 43/164/30
f 65/163/30 45/165/30 66/166/30
f 47/167/30 66/166/30 45/165/30
f 66/166/30 47/167/30 67/168/30
usemtl Material.010
f 73/169/31 74/170/31 75/171/32
f 75/171/32 74/170/31 76/172/32
f 76/172/32 77/173/10 75/171/32
f 77/173/10 76/172/32 78/174/33
f 77/173/10 78/174/33 79/175/12
f 79/175/12 78/174/33 80/176/34
f 80/176/34 81/177/35 79/175/12
f 81/177/35 80/176/34 82/178/35
f 82/178/35 83/179/36 81/177/35
f 83/179/36 82/178/35 84/180/36
f 85/181/37 83/179/36 84/180/36
f 85/181/37 86/182/37 83/179/36
f 86/183/38 85/184/38 87/185/38
f 87/185/38 88/186/38 86/183/38
f 73/187/39 89/188/39 74/189/39
f 73/187/39 90/190/39 89/188/39
f 87/191/22 92/192/22 91/193/22
f 92/192/22 87/191/22 85/194/22
f 74/195/22 93/196/22 76/197/22
f 93/196/22 74/195/22 89/198/22
f 94/199/22 76/197/22 93/196/22
f 76/197/22 94/199/22 78/200/22
f 78/200/22 94/199/22 80/201/22
f 95/202/22 80/201/22 94/199/22
f 80/201/22 95/202/22 82/203/22
f 96/204/22 82/203/22 95/202/22
f 82/203/22 96/204/22 84/205/40
f 97/206/41 84/205/40 96/204/22
f 97/206/41 85/207/42 84/205/40
f 85/207/42 97/206/41 92/208/43
f 98/209/44 87/210/44 91/211/44
f 98/209/44 88/212/44 87/210/44
f 88/213/30 99/214/30 86/215/30
f 99/214/30 88/213/30 98/216/30
f 73/217/30 100/218/30 90/219/30
f 100/218/30 73/217/30 75/220/30
f 75/220/30 101/221/30 100/218/30
f 101/221/30 75/220/30 77/222/30
f 79/223/30 101/221/30 77/222/30
f 101/221/30 79/223/30 102/224/30
f 81/225/30 102/224/30 79/223/30
f 102/224/30 81/225/30 103/226/30
f 83/227/45 103/226/30 81/225/30
f 103/226/30 83/227/45 104/228/46
f 86/229/47 104/230/46 83/231/45
f 104/230/46 86/229/47 99/232/47
f 99/233/48 92/234/48 97/235/49
f 99/233/48 97/235/49 104/236/50
f 90/237/51 93/238/52 89/239/51
f 90/237/51 100/240/52 93/238/52
f 100/240/52 94/241/24 93/238/52
f 100/240/52 101/242/24 94/241/24
f 101/242/24 95/243/5 94/241/24
f 101/242/24 102/244/5 95/243/5
f 102/244/5 96/245/53 95/243/5
f 102/244/5 103/246/53 96/245/53
f 103/246/53 97/247/49 96/245/53
f 103/246/53 104/248/50 97/247/49
f 98/249/54 92/250/55 99/251/54
f 92/250/55 98/249/54 91/252/55
usemtl Meshpart1Mtl.004
f 109/253/56 111/254/57 112/255/58 110/256/59 108/257/60 106/258/61 107/259/62 105/260/63
f 117/253/64 113/260/65 114/259/66 115/258/67 116/257/68 118/256/69 120/255/70 119/254/71
f 107/259/62 114/259/66 113/260/65 105/260/63
f 111/254/57 119/254/71 120/255/70 112/255/58
f 109/253/56 117/253/64 119/254/71 111/254/57
f 105/260/63 113/260/65 117/253/64 109/253/56
f 106/258/61 115/258/67 114/259/66 107/259/62
f 112/255/58 120/255/70 118/256/69 110/256/59
f 110/256/59 118/256/69 116/257/68 108/257/60
f 108/257/60 116/257/68 115/258/67 106/258/61
f 184/253/64 180/260/65 182/259/66 181/258/67 183/257/68 185/256/69 187/255/133 186/254/71
f 192/253/56 194/254/57 195/255/134 193/256/59 191/257/60 190/258/61 189/259/62 188/260/63
f 182/259/66 180/260/65 188/260/63 189/259/62
f 186/254/71 187/255/133 195/255/134 194/254/57
f 184/253/64 186/254/71 194/254/57 192/253/56
f 180/260/65 184/253/64 192/253/56 188/260/63
f 181/258/67 182/259/66 189/259/62 190/258/61
f 187/255/133 185/256/69 193/256/59 195/255/134
f 185/256/69 183/257/68 191/257/60 193/256/59
f 183/257/68 181/258/67 190/258/61 191/257/60
usemtl Meshpart2Mtl.002
f 121/261/72 122/262/73 123/263/74
f 122/262/73 124/264/75 123/263/74
f 125/265/76 121/261/72 123/263/74
f 124/264/75 126/266/77 123/263/74
f 127/267/78 125/265/76 123/263/74
f 126/266/77 128/268/79 123/263/74
f 129/269/80 127/267/78 123/263/74
f 128/268/79 129/269/80 123/263/74
f 122/270/30 121/271/81 125/272/30 127/273/30 129/274/30 128/275/30 126/276/30 124/277/30
f 196/261/135 198/263/136 197/262/137
f 197/262/137 198/263/136 199/264/138
f 200/265/139 198/263/136 196/261/135
f 199/264/138 198/263/136 201/266/140
f 202/267/141 198/263/136 200/265/139
f 201/266/140 198/263/136 203/268/142
f 204/269/143 198/263/136 202/267/141
f 203/268/142 198/263/136 204/269/143
f 197/270/22 199/277/22 201/276/22 203/275/22 204/274/22 202/273/22 200/272/22 196/271/144
usemtl Meshpart1Mtl.007
f 134/253/82 136/254/83 137/255/84 135/256/85 133/257/86 131/258/87 132/259/88 130/260/89
f 142/253/90 138/260/91 139/259/92 140/258/93 141/257/94 143/256/95 145/255/96 144/254/97
f 132/259/88 139/259/92 138/260/91 130/260/89
f 136/254/83 144/254/97 145/255/96 137/255/84
f 134/253/82 142/253/90 144/254/97 136/254/83
f 130/260/89 138/260/91 142/253/90 134/253/82
f 131/258/87 140/258/93 139/259/92 132/259/88
f 137/255/84 145/255/96 143/256/95 135/256/85
f 135/256/85 143/256/95 141/257/94 133/257/86
f 133/257/86 141/257/94 140/258/93 131/258/87
f 209/253/90 205/260/145 207/259/92 206/258/93 208/257/94 210/256/95 212/255/146 211/254/97
f 217/253/82 219/254/83 220/255/147 218/256/85 216/257/86 215/258/87 214/259/88 213/260/148
f 207/259/92 205/260/145 213/260/148 214/259/88
f 211/254/97 212/255/146 220/255/147 219/254/83
f 209/253/90 211/254/97 219/254/83 217/253/82
f 205/260/145 209/253/90 217/253/82 213/260/148
f 206/258/93 207/259/92 214/259/88 215/258/87
f 212/255/146 210/256/95 218/256/85 220/255/147
f 210/256/95 208/257/94 216/257/86 218/256/85
f 208/257/94 206/258/93 215/258/87 216/257/86
usemtl Meshpart2Mtl.005
f 146/261/98 147/262/99 148/263/74
f 147/262/99 149/264/100 148/263/74
f 150/265/101 146/261/98 148/263/74
f 149/264/100 151/266/102 148/263/74
f 152/267/103 150/265/101 148/263/74
f 151/266/102 153/268/104 148/263/74
f 154/269/105 152/267/103 148/263/74
f 153/268/104 154/269/105 148/263/74
f 147/270/30 146/271/106 150/272/30 152/273/30 154/274/30 153/275/30 151/276/30 149/277/30
f 221/261/149 223/263/136 222/262/150
f 222/262/150 223/263/136 224/264/151
f 225/265/152 223/263/136 221/261/149
f 224/264/151 223/263/136 226/266/153
f 227/267/154 223/263/136 225/265/152
f 226/266/153 223/263/136 228/268/155
f 229/269/156 223/263/136 227/267/154
f 228/268/155 223/263/136 229/269/156
f 222/270/22 224/277/22 226/276/22 228/275/22 229/274/22 227/273/22 225/272/22 221/271/157
usemtl Meshpart1Mtl.002
f 159/253/107 161/254/108 162/255/109 160/256/110 158/257/111 156/258/112 157/259/113 155/260/114
f 167/253/115 163/260/116 164/259/117 165/258/118 166/257/119 168/256/120 170/255/121 169/254/122
f 157/259/113 164/259/117 163/260/116 155/260/114
f 161/254/108 169/254/122 170/255/121 162/255/109
f 159/253/107 167/253/115 169/254/122 161/254/108
f 155/260/114 163/260/116 167/253/115 159/253/107
f 156/258/112 165/258/118 164/259/117 157/259/113
f 162/255/109 170/255/121 168/256/120 160/256/110
f 160/256/110 168/256/120 166/257/119 158/257/111
f 158/257/111 166/257/119 165/258/118 156/258/112
f 234/253/115 230/260/116 232/259/117 231/258/118 233/257/119 235/256/120 237/255/158 236/254/122
f 242/253/107 244/254/108 245/255/159 243/256/110 241/257/111 240/258/112 239/259/113 238/260/114
f 232/259/117 230/260/116 238/260/114 239/259/113
f 236/254/122 237/255/158 245/255/159 244/254/108
f 234/253/115 236/254/122 244/254/108 242/253/107
f 230/260/116 234/253/115 242/253/107 238/260/114
f 231/258/118 232/259/117 239/259/113 240/258/112
f 237/255/158 235/256/120 243/256/110 245/255/159
f 235/256/120 233/257/119 241/257/111 243/256/110
f 233/257/119 231/258/118 240/258/112 241/257/111
usemtl Meshpart2Mtl.001
f 171/261/123 172/262/124 173/263/125
f 172/262/124 174/264/126 173/263/125
f 175/265/127 171/261/123 173/263/125
f 174/264/126 176/266/128 173/263/125
f 177/267/129 175/265/127 173/263/125
f 176/266/128 178/268/130 173/263/125
f 179/269/131 177/267/129 173/263/125
f 178/268/130 179/269/131 173/263/125
f 172/270/30 171/271/132 175/272/30 177/273/30 179/274/30 178/275/30 176/276/30 174/277/30
f 246/261/160 248/263/161 247/262/162
f 247/262/162 248/263/161 249/264/163
f 250/265/164 248/263/161 246/261/160
f 249/264/163 248/263/161 251/266/165
f 252/267/166 248/263/161 250/265/164
f 251/266/165 248/263/161 253/268/167
f 254/269/168 248/263/161 252/267/166
f 253/268/167 248/263/161 254/269/168
f 247/270/22 249/277/22 251/276/22 253/275/22 254/274/22 252/273/22 250/272/22 246/271/169
